<?xml version="1.0" standalone="no"?>
<!DOCTYPE svg PUBLIC "-//W3C//DTD SVG 20010904//EN"
 "http://www.w3.org/TR/2001/REC-SVG-20010904/DTD/svg10.dtd">
<svg version="1.0" xmlns="http://www.w3.org/2000/svg"
 width="7730.000000pt" height="7730.000000pt" viewBox="0 0 7730.000000 7730.000000"
 preserveAspectRatio="xMidYMid meet">

<g transform="translate(0.000000,7730.000000) scale(0.100000,-0.100000)"
fill="#000000" stroke="none">
<path d="M38130 58290 c-104 -13 -249 -47 -350 -82 -574 -202 -943 -774 -1054
-1633 -41 -315 -47 -885 -12 -1185 128 -1096 603 -1711 1399 -1810 143 -18
465 -8 585 19 393 87 674 284 902 631 188 287 308 666 367 1157 22 189 25 857
5 1053 -114 1076 -562 1700 -1317 1835 -106 20 -416 28 -525 15z m373 -765
c222 -58 385 -244 487 -555 96 -293 142 -781 121 -1260 -30 -642 -142 -1019
-366 -1229 -114 -107 -239 -154 -405 -154 -158 0 -281 48 -396 155 -138 130
-232 316 -298 594 -109 458 -111 1220 -6 1694 94 422 282 682 546 755 68 18
246 19 317 0z"/>
<path d="M42138 58280 c-597 -70 -1057 -398 -1334 -952 -214 -426 -308 -983
-276 -1632 28 -560 110 -925 287 -1281 228 -458 566 -725 1040 -822 141 -28
615 -25 815 5 245 38 564 125 748 203 l42 18 0 1181 0 1180 -705 0 -705 0 2
-377 3 -378 283 -3 282 -2 0 -524 c0 -491 -1 -525 -17 -530 -137 -40 -436 -58
-545 -32 -372 87 -591 502 -649 1229 -17 216 -7 645 20 814 51 329 151 592
301 792 246 326 604 439 1025 326 109 -30 188 -61 322 -128 57 -28 105 -48
108 -45 8 7 265 671 265 684 0 17 -265 140 -395 183 -130 42 -271 74 -405 90
-95 12 -410 12 -512 1z"/>
<path d="M30970 55931 l0 -2301 761 0 c636 0 779 3 866 16 213 31 393 102 541
213 238 180 387 437 448 776 26 142 26 512 1 639 -83 410 -277 635 -644 746
-42 13 -73 27 -73 35 0 7 22 18 53 25 316 75 537 379 588 811 14 125 7 355
-16 484 -75 423 -316 678 -741 786 -236 59 -272 61 -1061 66 l-723 5 0 -2301z
m1373 1535 c90 -25 150 -60 205 -120 89 -98 117 -213 110 -445 -4 -122 -10
-159 -31 -226 -47 -144 -112 -216 -235 -264 -65 -24 -76 -25 -339 -29 l-273
-4 0 557 0 557 253 -5 c190 -3 266 -8 310 -21z m22 -1821 c186 -48 303 -170
350 -366 34 -141 29 -382 -10 -534 -50 -189 -176 -316 -353 -354 -32 -6 -157
-11 -312 -11 l-260 0 0 640 0 640 263 0 c203 0 276 -3 322 -15z"/>
<path d="M34240 55930 l0 -2300 1020 0 1020 0 0 375 0 375 -590 0 -590 0 0
1925 0 1925 -430 0 -430 0 0 -2300z"/>
<path d="M14300 53204 c-837 -6 -2118 -25 -2288 -35 -369 -21 -692 -100 -1022
-248 -595 -269 -1080 -734 -1377 -1321 -153 -302 -250 -625 -288 -960 -14
-121 -15 -1530 -13 -13435 l3 -13300 22 -145 c77 -522 224 -968 458 -1389 434
-779 1097 -1378 1916 -1730 402 -172 871 -280 1329 -306 234 -13 4228 -103
7550 -170 3845 -77 8897 -171 11993 -222 825 -13 1067 -20 1067 -29 0 -15
-871 -6029 -873 -6030 -1 0 -261 -9 -577 -18 -316 -9 -627 -19 -690 -22 -63
-2 -567 -18 -1120 -34 -553 -16 -1057 -34 -1120 -39 -323 -28 -594 -173 -740
-396 -53 -81 -67 -125 -161 -500 -44 -176 -110 -435 -146 -575 -57 -224 -65
-266 -65 -346 1 -307 249 -576 632 -682 l95 -27 10910 -3 c8060 -2 10931 0
10990 8 358 51 654 283 726 571 39 154 42 142 -250 1162 -143 499 -271 932
-285 962 -122 268 -442 456 -801 472 -66 3 -419 -4 -785 -16 -1456 -45 -2120
-64 -2123 -60 -5 6 -1178 5373 -1177 5387 0 11 41 13 223 8 122 -3 436 -8 697
-11 509 -6 2630 -31 3355 -40 972 -11 1454 -16 3925 -40 1357 -13 3043 -25
4478 -31 843 -4 1534 -10 1536 -13 5 -7 -9 -732 -24 -1246 -82 -2936 -288
-5230 -601 -6682 -46 -214 -46 -244 1 -292 74 -74 502 -171 753 -171 144 0
196 22 248 106 41 67 352 1266 543 2094 473 2051 818 4124 971 5830 35 391 32
370 59 370 30 0 27 16 70 -390 148 -1374 250 -3155 306 -5325 17 -685 21 -822
35 -1550 8 -396 17 -776 21 -845 9 -181 34 -221 161 -260 108 -33 274 -46 426
-32 73 7 148 17 168 22 51 14 115 73 133 123 50 135 193 1024 296 1842 238
1903 380 3964 399 5785 l6 635 425 6 c504 8 641 21 920 89 379 93 801 303
1110 551 525 422 884 1005 1024 1660 55 256 60 340 91 1529 175 6742 189
12827 40 17570 -117 3693 -332 6600 -640 8645 -83 549 -221 921 -490 1325 -46
69 -95 139 -109 155 l-25 30 -1 -25 c0 -14 -65 -437 -145 -940 -80 -503 -166
-1043 -191 -1200 -25 -157 -101 -638 -170 -1070 l-125 -785 -29 -8305 c-16
-4568 -30 -8451 -30 -8630 l0 -324 -66 109 c-406 679 -1065 1384 -1839 1966
-211 159 -198 153 -410 199 -414 90 -780 160 -1235 235 -316 52 -320 52 -320
26 0 -51 -108 -116 -296 -179 -476 -159 -990 -95 -1466 184 -85 50 -170 135
-188 188 -11 33 -11 33 -88 40 -42 5 -376 9 -742 12 -782 4 -959 14 -1390 80
-330 50 -750 142 -1049 229 -69 19 -130 34 -136 31 -7 -2 -18 -32 -24 -66 -7
-34 -37 -146 -66 -249 -184 -641 -445 -1174 -790 -1616 l-74 -95 217 -108
c119 -60 268 -131 331 -158 l114 -49 -269 -6 c-418 -10 -462 -17 -500 -90 -33
-65 -27 -83 182 -500 918 -1838 1756 -3371 2261 -4138 190 -288 266 -389 309
-407 30 -13 133 -14 748 -8 l713 7 16 -64 c152 -578 320 -1287 336 -1409 17
-130 95 -1209 88 -1216 -3 -4 -1344 10 -2979 30 -3467 43 -3298 42 -3298 20 0
-15 -23 -16 -257 -10 -142 3 -388 6 -548 7 -335 1 -1649 19 -12425 169 -9572
133 -12446 172 -13895 190 -451 5 -1000 12 -1220 15 -220 3 -949 12 -1620 20
-671 8 -1402 17 -1625 20 -695 10 -2777 34 -3400 40 -327 3 -701 7 -830 10
-129 3 -467 7 -750 11 -2736 29 -4402 55 -4510 69 -618 84 -1170 402 -1534
885 -228 302 -359 606 -438 1010 l-22 115 -4 12535 c-2 9477 0 12562 9 12645
88 832 771 1499 1603 1564 64 5 1429 -19 3721 -65 1991 -41 3686 -74 3768 -74
l147 0 0 570 0 570 -272 0 c-150 0 -388 2 -528 4 -315 6 -4507 14 -5090 10z
m43095 -22854 c1283 -49 2199 -136 2383 -226 70 -34 142 -105 176 -171 29 -59
301 -972 291 -981 -3 -4 -24 -12 -46 -18 -31 -9 -41 -9 -44 -1 -3 7 -63 212
-135 457 -71 245 -137 460 -145 478 -21 46 -92 120 -137 143 -154 78 -1010
162 -2143 209 -339 14 -858 30 -977 30 l-98 0 0 52 0 51 308 -7 c169 -3 424
-11 567 -16z m963 -819 c75 -41 135 -103 170 -179 24 -50 27 -70 27 -157 0
-93 -2 -105 -33 -167 -120 -245 -444 -290 -628 -86 -112 125 -124 323 -27 466
44 65 97 107 171 139 50 21 70 23 157 20 91 -2 105 -6 163 -36z m5917 -722
c77 -114 134 -231 171 -356 l28 -91 56 28 c372 187 865 344 1334 425 172 29
443 61 452 53 15 -16 45 -271 51 -434 17 -504 -107 -973 -374 -1416 l-70 -117
-7 -1008 c-4 -554 -11 -1053 -17 -1108 -40 -399 -202 -804 -448 -1122 -300
-389 -723 -670 -1195 -794 -140 -36 -146 -37 -146 -1 0 29 -44 385 -76 612
-17 125 -17 127 9 420 57 630 96 1254 123 1928 l7 172 -34 0 c-95 0 -371 23
-494 41 -646 93 -1412 370 -2165 782 -171 93 -153 91 -181 20 -8 -22 -14 -23
-107 -23 -229 0 -400 87 -595 303 -86 95 -156 147 -199 147 -15 0 -55 -14 -88
-31 -80 -42 -141 -48 -208 -19 -46 20 -122 87 -122 108 0 4 42 54 94 112 52
57 93 106 92 107 -2 2 -22 -4 -46 -12 -56 -20 -133 -19 -177 1 -37 18 -93 102
-92 139 0 13 34 46 105 99 57 43 103 80 101 82 -2 2 -19 -1 -38 -6 -84 -24
-177 -6 -238 47 -40 34 -84 112 -96 169 l-6 30 193 62 c408 131 755 211 944
219 105 5 131 3 190 -15 147 -45 250 -144 330 -316 42 -92 84 -236 84 -290 0
-77 6 -85 95 -126 356 -164 826 -319 1180 -389 313 -63 653 -77 880 -36 202
36 392 119 536 232 l79 63 0 258 c0 230 -5 411 -25 1027 l-6 180 26 -30 c14
-16 55 -73 90 -126z m-28765 -6364 c13439 -228 24517 -418 24618 -421 l182 -6
0 -70 0 -70 -187 6 c-104 4 -11215 193 -24693 422 -22925 389 -24507 417
-24530 433 -33 24 -38 73 -11 100 18 18 34 21 104 21 45 0 11078 -186 24517
-415z m29875 -511 c1036 -17 975 -11 975 -84 0 -77 79 -72 -1061 -55 -558 9
-1033 18 -1056 21 l-41 5 -4 62 c-2 34 -3 64 -2 67 2 3 60 4 131 3 70 -2 547
-10 1058 -19z m-26090 -29 c39 -8 108 -33 154 -55 67 -32 101 -57 166 -123 88
-87 137 -169 171 -283 25 -81 25 -257 0 -339 -82 -275 -311 -459 -587 -473
-122 -6 -220 15 -332 70 -159 79 -291 246 -332 420 -19 82 -19 228 0 303 86
340 421 552 760 480z m2311 -8301 c20 -19 24 -31 20 -52 -13 -53 -37 -62 -165
-62 -64 0 -274 -3 -467 -7 -350 -6 -351 -6 -372 15 -28 28 -28 73 -1 98 19 17
43 19 263 24 132 3 344 7 469 8 l228 2 25 -26z m-2242 -25 c31 -25 35 -70 7
-98 -25 -25 257 -19 -5074 -96 -4942 -72 -4545 -61 -4705 -135 -163 -76 -275
-186 -355 -345 -49 -98 -58 -137 -132 -600 -35 -225 -69 -420 -75 -432 -18
-43 -81 -44 -112 -2 l-20 26 71 442 c45 282 80 470 97 519 82 246 275 449 515
542 167 64 -149 56 4879 130 2533 37 4666 68 4741 69 124 1 139 -1 163 -20z"/>
<path d="M39040 21764 c-320 -85 -473 -432 -322 -729 57 -114 210 -229 339
-255 76 -16 205 -8 274 17 224 81 365 313 331 545 -43 297 -338 497 -622 422z"/>
<path d="M54050 51977 l0 -615 193 -6 c268 -9 5170 -106 5342 -106 113 0 221
11 550 54 226 30 615 82 865 115 1354 179 1744 231 2460 326 1504 200 2076
275 2091 275 44 2 -260 124 -431 174 -309 89 -484 112 -1045 131 -820 28
-3162 93 -5410 150 -753 19 -1460 37 -1570 40 -110 3 -758 19 -1440 35 -682
16 -1322 32 -1422 35 l-183 7 0 -615z"/>
<path d="M39250 51034 c-229 -80 -1325 -460 -1615 -561 -71 -24 -179 -62 -240
-83 -60 -21 -220 -77 -355 -123 -135 -47 -402 -140 -595 -207 -192 -67 -465
-161 -605 -210 -140 -49 -471 -163 -735 -255 -264 -92 -601 -209 -750 -260
-148 -51 -373 -129 -500 -173 -126 -44 -405 -141 -620 -215 -390 -135 -947
-328 -1380 -479 -126 -44 -241 -84 -255 -88 -14 -4 -124 -43 -245 -85 -121
-42 -290 -100 -375 -130 -85 -29 -312 -108 -505 -175 -192 -67 -465 -161 -605
-210 -140 -49 -365 -126 -500 -173 -135 -47 -423 -147 -640 -222 -217 -75
-496 -172 -620 -215 -261 -91 -715 -248 -1625 -563 -357 -124 -753 -261 -880
-305 -126 -44 -646 -224 -1155 -400 -509 -176 -1251 -434 -1650 -572 -399
-138 -963 -334 -1255 -435 -656 -227 -1787 -618 -2115 -732 -135 -47 -360
-125 -500 -173 -140 -49 -371 -128 -513 -177 -245 -85 -257 -89 -257 -68 0 17
-7 24 -32 28 -18 3 -109 22 -203 42 -479 102 -1060 180 -1655 222 -352 25
-1281 25 -1640 0 -365 -26 -735 -64 -878 -92 -841 -164 -1517 -805 -1727
-1640 -63 -249 -121 -751 -157 -1360 -16 -275 -16 -1323 0 -1645 35 -682 84
-1274 163 -1935 56 -479 154 -1157 185 -1292 99 -427 409 -811 813 -1007 52
-25 125 -56 162 -68 l67 -21 102 -266 c57 -146 239 -615 405 -1041 1953 -5007
3276 -8113 3767 -8849 390 -583 1025 -951 1761 -1018 151 -14 572 -8 702 11
746 104 1413 414 1888 875 318 309 509 643 573 1003 23 126 23 342 0 483 -120
737 -746 2246 -1841 4435 -403 805 -815 1605 -1205 2335 -383 718 -419 784
-816 1510 -277 507 -280 513 -274 518 3 3 163 -30 355 -73 193 -43 1453 -324
2800 -624 1348 -300 3672 -818 5165 -1151 3213 -717 9372 -2091 11405 -2545
792 -176 1450 -324 1463 -327 20 -5 15 7 -38 88 -82 125 -243 455 -323 659
-610 1553 -1035 4319 -1167 7595 -29 728 -34 1057 -35 2090 0 1080 6 1404 40
2215 160 3776 717 6866 1462 8103 39 64 66 117 59 116 -6 0 -121 -38 -256 -85z
m-1275 -1328 c39 -17 55 -42 55 -86 0 -44 -16 -69 -55 -86 -27 -11 -670 -217
-1580 -506 -104 -33 -251 -79 -325 -103 -74 -24 -279 -89 -455 -145 -176 -56
-374 -119 -440 -140 -66 -21 -262 -84 -435 -139 -442 -140 -1152 -365 -1430
-455 -129 -41 -428 -136 -665 -211 -236 -75 -626 -199 -865 -275 -239 -76
-633 -202 -875 -278 -242 -77 -1288 -410 -2325 -740 -2346 -747 -2758 -878
-2990 -952 -102 -32 -293 -93 -425 -135 -675 -215 -939 -299 -1130 -360 -115
-37 -316 -100 -445 -141 -129 -42 -318 -102 -420 -134 -102 -32 -392 -125
-645 -205 -253 -81 -557 -177 -675 -215 -118 -37 -386 -122 -595 -189 -210
-67 -395 -121 -412 -121 -19 0 -43 10 -60 24 -38 32 -39 95 -3 130 19 19 200
80 785 266 418 133 807 257 865 275 125 40 721 230 2797 891 853 271 1657 527
1785 568 128 41 325 104 438 139 113 36 363 115 555 177 193 61 393 125 445
141 331 105 1003 319 1640 523 129 41 379 120 555 176 176 56 367 117 425 135
58 18 254 81 435 138 182 58 436 139 565 180 129 41 377 120 551 176 174 55
365 116 425 135 60 19 217 69 349 111 132 42 323 103 425 135 102 32 347 110
545 174 198 63 428 136 510 162 83 26 803 256 1600 510 798 254 1454 463 1458
463 4 1 23 -5 42 -13z m-18494 -6045 c21 -21 29 -39 29 -65 0 -70 29 -55 -777
-382 -100 -41 -189 -74 -198 -74 -30 0 -72 29 -85 59 -14 35 -6 83 19 105 9 9
96 48 192 87 96 39 255 104 354 144 99 41 223 92 275 114 118 49 151 51 191
12z m-2633 -970 c69 -31 154 -123 177 -190 13 -41 16 -85 13 -258 -3 -194 -5
-211 -26 -255 -31 -63 -96 -126 -162 -157 l-55 -26 -1890 0 -1890 0 -56 28
c-75 36 -140 107 -169 183 -30 81 -25 186 13 261 30 59 50 73 100 73 69 0 113
-88 73 -145 -41 -59 -18 -156 46 -195 33 -20 44 -20 1884 -20 l1851 0 34 23
c60 40 69 72 69 247 0 171 -9 204 -63 244 l-28 21 -1871 5 -1870 5 -24 28
c-41 48 -25 125 30 147 12 5 846 8 1891 7 l1870 -2 53 -24z m-316 -1609 c81
-40 139 -102 168 -180 20 -52 21 -73 18 -262 -3 -200 -4 -206 -30 -255 -34
-66 -111 -137 -173 -161 -49 -18 -101 -19 -1940 -19 l-1890 0 -50 25 c-116 57
-185 169 -185 299 0 174 104 279 191 192 35 -35 36 -59 8 -127 -29 -69 -20
-115 31 -166 l38 -38 1858 0 c1825 0 1860 0 1891 20 62 37 68 57 71 235 3 151
2 163 -20 204 -14 28 -36 51 -58 63 -33 17 -114 18 -1887 18 l-1851 0 -31 26
c-24 20 -31 34 -31 63 0 41 22 78 54 91 12 5 842 8 1886 7 l1865 -2 67 -33z
m330 -1880 c78 -38 129 -94 159 -172 16 -43 19 -77 19 -253 0 -201 0 -202 -29
-262 -35 -75 -112 -147 -184 -172 -50 -17 -139 -18 -1927 -18 l-1875 0 -62 29
c-72 33 -134 95 -166 164 -17 37 -22 66 -22 137 0 79 4 97 28 142 31 59 50 73
102 73 72 0 106 -71 68 -143 -37 -72 -8 -168 61 -201 31 -15 205 -16 1879 -16
l1844 0 33 23 c61 41 70 73 70 245 0 170 -7 201 -59 245 l-33 27 -1849 0
c-1985 0 -1901 -2 -1928 48 -20 38 -13 82 18 113 l30 29 1878 -2 1878 -3 67
-33z m320 -2069 c64 -30 134 -96 166 -158 27 -50 27 -51 27 -275 0 -224 0
-225 -27 -275 -34 -66 -111 -137 -173 -161 -49 -18 -101 -19 -1930 -19 -1829
0 -1881 1 -1930 19 -63 24 -139 96 -173 161 -19 38 -27 70 -30 131 -4 73 -1
88 23 143 16 34 38 69 49 77 35 24 84 18 117 -15 35 -35 36 -62 8 -126 -24
-54 -20 -102 13 -147 44 -62 -98 -58 1926 -58 l1849 0 34 23 c60 40 69 72 69
247 0 171 -9 203 -64 245 -27 20 -37 20 -1898 25 l-1870 5 -24 28 c-41 48 -25
125 30 147 12 5 846 8 1891 7 l1870 -2 47 -22z m-2543 -2630 c26 -22 361 -762
361 -798 0 -40 -50 -85 -93 -85 -19 0 -44 8 -56 18 -12 9 -98 187 -192 396
-145 323 -170 384 -164 412 11 64 96 97 144 57z m760 -1681 c13 -15 684 -1494
1491 -3288 1010 -2245 1486 -3294 1530 -3368 338 -567 896 -940 1549 -1036
153 -22 420 -27 561 -10 410 51 789 216 1104 482 54 46 109 92 122 103 33 26
87 25 118 -4 56 -53 41 -103 -59 -192 -691 -612 -1640 -758 -2495 -384 -471
206 -882 591 -1115 1045 -64 126 -2956 6545 -2963 6578 -7 35 18 83 52 98 40
17 75 9 105 -24z"/>
<path d="M40280 50903 c-63 -72 -145 -209 -236 -398 -651 -1348 -1137 -4382
-1264 -7900 -41 -1127 -41 -2586 0 -3700 13 -359 38 -889 50 -1076 105 -1607
216 -2658 400 -3784 272 -1667 662 -2950 1044 -3437 l49 -62 29 35 c84 98 192
281 281 476 473 1033 860 2947 1076 5318 44 475 111 1397 111 1516 0 27 5 38
23 46 38 18 201 144 306 237 199 176 413 450 565 722 388 696 542 1689 406
2620 -96 657 -333 1235 -686 1672 -156 195 -376 400 -555 519 -61 41 -69 50
-69 78 0 17 -7 132 -15 256 -132 1966 -368 3676 -686 4961 -181 733 -415 1384
-620 1727 -54 89 -149 220 -161 221 -3 0 -25 -21 -48 -47z m1 -7188 c684 -75
1249 -325 1660 -734 145 -145 208 -222 319 -392 255 -391 426 -940 466 -1501
l7 -97 -31 -30 c-34 -35 -67 -39 -112 -16 -35 18 -45 52 -55 175 -3 47 -17
158 -31 246 -76 498 -245 926 -495 1256 -82 109 -262 293 -369 378 -363 290
-826 464 -1415 532 -173 20 -628 16 -805 -7 -193 -25 -208 -25 -237 9 -38 45
-26 118 26 145 24 13 217 39 371 50 167 13 522 5 701 -14z"/>
<path d="M59675 37546 c-58 -18 -83 -33 -138 -85 -136 -126 -223 -348 -234
-596 -9 -212 30 -325 161 -462 193 -204 544 -354 1196 -509 258 -61 332 -84
413 -127 67 -35 84 -59 68 -91 -6 -11 -25 -61 -42 -111 -35 -101 -89 -213
-157 -324 -50 -83 -50 -112 0 -140 24 -14 31 -12 114 26 117 54 184 73 259 73
101 0 145 -51 145 -168 0 -153 -143 -281 -377 -335 l-97 -23 -62 -188 c-49
-145 -61 -193 -54 -211 15 -41 40 -47 127 -30 295 57 616 250 930 562 l134
132 137 0 c148 0 216 12 300 55 101 52 166 155 178 282 18 197 -69 363 -224
425 -31 12 -63 27 -69 32 -23 17 -14 56 23 103 112 148 134 327 65 534 -97
288 -250 446 -498 511 -88 23 -285 29 -363 10 -39 -9 -49 -8 -70 8 -22 16 -26
28 -32 97 -15 179 -90 309 -243 419 -191 137 -399 177 -577 112 -110 -40 -176
-85 -290 -199 -59 -60 -113 -108 -119 -108 -6 0 -58 49 -115 109 -189 197
-340 264 -489 217z"/>
<path d="M60385 10915 c-12 -119 -12 -120 -103 -149 -243 -76 -454 -73 -620
11 -71 36 -74 40 -58 101 8 29 11 52 8 52 -19 0 -2373 -1116 -2402 -1139 -89
-71 -122 -167 -78 -231 13 -19 35 -40 48 -47 31 -16 607 -17 1045 -3 758 25
1886 76 1974 89 176 27 312 169 327 342 8 86 -61 651 -119 979 l-14 75 -8 -80z"/>
<path d="M63396 10868 c-3 -7 -10 -43 -16 -80 l-12 -66 -56 -25 c-32 -14 -85
-31 -120 -38 -73 -14 -252 -8 -325 11 l-49 13 4 78 c2 44 0 79 -3 79 -3 0 -26
-26 -51 -57 -194 -248 -322 -549 -383 -903 -30 -172 -21 -246 39 -317 53 -62
93 -73 277 -73 165 0 430 17 719 45 174 18 221 34 270 93 47 57 64 129 50 209
-41 237 -193 757 -277 947 -39 87 -58 112 -67 84z"/>
</g>
</svg>
